# Blender v2.92.0 Alpha OBJ File: 'dslrbody.blend'
# www.blender.org
o Cube_Cube.002
v -1.182861 2.267832 -1.048755
v -1.182861 2.267832 0.295114
v -1.182861 1.587402 -1.048755
v -1.182861 1.587402 0.295114
v 2.556355 2.619572 0.989810
v 2.556355 2.619572 -1.743451
v 2.556355 1.235662 0.989810
v 2.556355 1.235662 -1.743451
v 1.148707 2.835446 1.416169
v 1.148707 2.835446 -2.169809
v 1.148707 1.019787 1.416169
v 1.148707 1.019787 -2.169809
v 0.587575 2.727170 1.308573
v 0.587575 2.727170 -2.062213
v -0.587575 2.619572 -1.743451
v -0.587575 2.619572 0.989810
v 0.587575 1.020467 1.308573
v 0.587575 1.020467 -2.062213
v -0.587575 1.235662 -1.743451
v -0.587575 1.235662 0.989810
v 0.543813 0.284204 -1.641664
v 0.284204 -0.284204 -1.037844
v 0.543813 0.284204 0.888023
v 0.284204 -0.284204 0.284204
v -0.543813 0.284204 -1.641664
v -0.284204 -0.284204 -1.037844
v -0.543813 0.284204 0.888023
v -0.284204 -0.284204 0.284204
vt 0.625000 0.250000
vt 0.625000 0.000000
vt 0.625000 0.250000
vt 0.708785 0.465841
vt 0.643236 0.291240
vt 0.724570 0.334251
vt 0.875000 0.500000
vt 0.875000 0.750000
vt 0.875000 0.750000
vt 0.625000 0.250000
vt 0.664126 0.983210
vt 0.548088 0.737316
vt 0.597952 0.662703
vt 0.350271 0.999991
vt 0.532614 0.846656
vt 0.404476 0.578557
vt 0.461715 0.834055
vt 0.490885 0.722009
vt 0.625000 0.750000
vt 0.625000 0.750000
vt 0.625000 0.750000
vt 0.203462 0.718289
vt 0.767284 0.495694
vt 0.769901 0.593958
vt 0.724570 0.958837
vt 0.644680 0.618187
vt 0.543363 0.378362
vt 0.440673 0.510304
vt 0.625000 1.000000
vt 0.625000 1.000000
vt 0.625000 1.000000
vt 0.625000 1.000000
vt 0.136182 0.354750
vt 0.331225 0.000086
vt 0.282867 0.349357
vt 0.427962 0.319550
vt 0.356895 0.435722
vt 0.625000 1.000000
vt 0.625000 0.750000
vt 0.550016 0.000009
vt 0.000009 0.610120
vt 0.036281 0.495271
vt 0.346869 0.802487
vt 0.400928 0.999915
vt 0.275183 0.837106
vt 0.625000 0.750000
vt 0.375000 1.000000
vt 0.375000 0.750000
vt 0.103239 0.393498
vt 0.276837 0.366691
vt 0.312449 0.298663
vt 0.375000 0.000000
vt 0.625000 0.250000
vt 0.375000 0.250000
vt 0.625000 0.000000
vt 0.875000 0.500000
vt 0.625000 0.000000
vt 0.164684 0.627963
vt 0.181300 0.019683
vt 0.675239 0.033106
vt 0.471916 0.940933
vt 0.625000 0.000000
vn -0.5087 -0.8609 0.0000
vn -0.7593 0.0000 -0.6507
vn -0.5087 0.8609 0.0000
vn -1.0000 0.0000 0.0000
vn 0.1516 0.9884 0.0000
vn 0.2899 0.0000 0.9571
vn 0.1516 -0.9884 0.0000
vn 1.0000 0.0000 0.0000
vn -0.1883 0.0000 0.9821
vn -0.0012 -1.0000 0.0000
vn -0.1895 0.9819 0.0000
vn 0.2899 0.0000 -0.9571
vn -0.2618 0.0000 -0.9651
vn -0.2618 0.0000 0.9651
vn -0.7593 0.0000 0.6507
vn -0.0912 0.9958 0.0000
vn 0.0000 -0.4960 -0.8683
vn -0.2796 -0.1148 0.9532
vn -0.9989 -0.0459 0.0000
vn -0.1883 0.0000 -0.9821
vn 0.9982 -0.0593 0.0000
vn 0.0000 -1.0000 0.0000
vn 0.0000 -0.7281 0.6854
vn 0.9096 -0.4154 0.0000
vn 0.0000 -0.7281 -0.6854
vn -0.9096 -0.4154 0.0000
vn -0.2796 -0.1148 -0.9532
vn 0.0000 -0.4960 0.8683
s off
f 19/1/1 4/2/1 3/3/1
f 15/4/2 3/5/2 1/6/2
f 15/7/3 2/8/3 16/9/3
f 4/2/4 1/10/4 3/3/4
f 9/11/5 6/12/5 10/13/5
f 11/14/6 5/15/6 9/11/6
f 12/16/7 7/17/7 11/14/7
f 8/18/8 5/15/8 7/17/8
f 13/19/9 11/20/9 9/21/9
f 18/22/10 11/23/10 17/24/10
f 13/25/11 10/13/11 14/26/11
f 10/13/12 8/18/12 12/16/12
f 19/27/13 14/26/13 18/28/13
f 20/29/14 13/19/14 16/30/14
f 20/29/15 2/31/15 4/32/15
f 15/33/16 13/34/16 14/35/16
f 25/36/17 18/28/17 21/37/17
f 27/38/18 17/39/18 20/29/18
f 27/40/19 19/27/19 25/36/19
f 14/26/20 12/16/20 18/28/20
f 21/37/21 17/41/21 23/42/21
f 22/43/22 28/44/22 26/45/22
f 23/46/23 28/47/23 24/48/23
f 21/37/24 24/49/24 22/50/24
f 25/36/25 22/50/25 26/51/25
f 28/52/26 25/53/26 26/54/26
f 19/1/1 20/55/1 4/2/1
f 15/4/2 19/27/2 3/5/2
f 15/7/3 1/56/3 2/8/3
f 4/2/4 2/57/4 1/10/4
f 9/11/5 5/15/5 6/12/5
f 11/14/6 7/17/6 5/15/6
f 12/16/7 8/18/7 7/17/7
f 8/18/8 6/12/8 5/15/8
f 13/19/9 17/39/9 11/20/9
f 18/22/10 12/58/10 11/23/10
f 13/25/11 9/11/11 10/13/11
f 10/13/12 6/12/12 8/18/12
f 19/27/13 15/4/13 14/26/13
f 20/29/14 17/39/14 13/19/14
f 20/29/15 16/30/15 2/31/15
f 15/33/16 16/59/16 13/34/16
f 25/36/27 19/27/27 18/28/27
f 27/38/28 23/46/28 17/39/28
f 27/40/19 20/60/19 19/27/19
f 14/26/20 10/13/20 12/16/20
f 21/37/21 18/28/21 17/41/21
f 22/43/22 24/61/22 28/44/22
f 23/46/23 27/38/23 28/47/23
f 21/37/24 23/42/24 24/49/24
f 25/36/25 21/37/25 22/50/25
f 28/52/26 27/62/26 25/53/26
