# Blender v2.92.0 Alpha OBJ File: ''
# www.blender.org
o stand.pipe1_pipe.003
v 1.640184 19.625490 -1.984468
v 1.264228 20.385458 -1.600307
v 1.417307 19.546970 -1.864323
v 1.034896 20.385458 -1.733276
v 1.187975 19.546970 -1.997293
v 1.181519 19.625490 -2.250407
v 1.209343 20.772406 -2.034145
v 1.404396 19.704010 -2.370553
v 0.986467 20.693886 -1.914000
v 1.445131 20.693886 -1.648061
v 1.633728 19.704010 -2.237583
v 5.893990 -3.674603 -9.321012
v 5.739635 -4.128447 -9.319050
v 5.962512 -4.049929 -9.439194
v 5.441782 -3.753123 -9.333840
v 5.510303 -4.128447 -9.452019
v 5.435326 -3.674602 -9.586954
v 5.503847 -4.049929 -9.705132
v 5.658202 -3.596083 -9.707100
v 5.726724 -3.971407 -9.825279
v 5.887534 -3.596083 -9.574130
v 5.956056 -3.971407 -9.692309
v 4.436975 4.306153 -6.808097
v 4.342280 3.525520 -6.909029
v 4.565157 3.604040 -7.029173
v 4.214098 4.227634 -6.687953
v 4.112948 3.525522 -7.041996
v 3.978311 4.306153 -7.074038
v 4.106492 3.604042 -7.295113
v 4.329369 3.682562 -7.415257
v 4.201187 4.384673 -7.194181
v 3.984766 4.227634 -6.820921
v 4.430519 4.384673 -7.061213
v 4.558701 3.682560 -7.282290
v 3.101810 11.619475 -4.505338
v 2.750752 12.243067 -4.164118
v 2.878934 11.540955 -4.385193
v 2.521420 12.243067 -4.297087
v 2.649602 11.540955 -4.518163
v 2.643147 11.619475 -4.771277
v 2.514965 12.321587 -4.550202
v 2.866023 11.697994 -4.891422
v 2.973629 12.321587 -4.284263
v 2.967173 12.400107 -4.537378
v 3.095355 11.697994 -4.758453
v 4.312524 3.762518 -7.329675
v 4.137326 3.700796 -7.235230
v 4.142401 3.639073 -7.036263
v 5.511352 -3.825388 -9.605016
v 5.686550 -3.763666 -9.699459
v 5.866822 -3.763666 -9.594935
v 2.671468 11.733070 -4.707064
v 2.676542 11.671347 -4.508097
v 3.032012 11.733070 -4.498016
v 4.045493 4.206885 -7.076849
v 4.220691 4.268608 -7.171291
v 4.400963 4.268608 -7.066769
v 1.209050 19.743414 -2.184831
v 1.214125 19.681690 -1.985864
v 1.569595 19.743414 -1.975783
v 2.583076 12.217232 -4.554615
v 2.758274 12.278955 -4.649058
v 2.938546 12.278955 -4.544534
v 1.438675 20.772406 -1.901175
v 5.671113 -3.753123 -9.200871
v 2.737841 12.400107 -4.670347
v 4.322673 3.639071 -6.931741
v 4.497871 3.700794 -7.026184
v 4.492796 3.762516 -7.225152
v 5.871897 -3.825390 -9.395967
v 5.696699 -3.887113 -9.301524
v 5.516427 -3.887113 -9.406048
v 2.856815 11.671347 -4.403572
v 3.026938 11.794792 -4.696983
v 2.846665 11.794792 -4.801507
v 4.406038 4.206885 -6.867802
v 4.230840 4.145163 -6.773356
v 4.050568 4.145163 -6.877882
v 1.394397 19.681690 -1.881340
v 1.564520 19.805136 -2.174751
v 1.384248 19.805136 -2.279275
v 2.943621 12.217232 -4.345567
v 2.768423 12.155509 -4.251123
v 2.588151 12.155509 -4.355648
vt 0.000000 0.000000
vt 1.000000 0.000000
vt 1.000000 1.000000
vt 0.000000 0.000000
vt 1.000000 0.000000
vt 1.000000 1.000000
vt 0.000000 0.000000
vt 1.000000 0.000000
vt 0.000000 0.000000
vt 1.000000 0.000000
vt 1.000000 1.000000
vt 0.000000 0.000000
vt 1.000000 1.000000
vt 0.000000 0.000000
vt 1.000000 0.000000
vt 0.000000 0.000000
vt 1.000000 0.000000
vt 1.000000 1.000000
vt 1.000000 0.000000
vt 1.000000 1.000000
vt 0.000000 0.000000
vt 1.000000 0.000000
vt 1.000000 1.000000
vt 0.000000 0.000000
vt 1.000000 0.000000
vt 1.000000 1.000000
vt 0.000000 0.000000
vt 1.000000 0.000000
vt 1.000000 1.000000
vt 0.000000 0.000000
vt 1.000000 0.000000
vt 1.000000 1.000000
vt 0.000000 0.000000
vt 1.000000 1.000000
vt 0.000000 0.000000
vt 1.000000 0.000000
vt 1.000000 1.000000
vt 0.000000 0.000000
vt 1.000000 0.000000
vt 1.000000 0.000000
vt 1.000000 1.000000
vt 0.000000 0.000000
vt 1.000000 0.000000
vt 1.000000 1.000000
vt 0.000000 0.000000
vt 1.000000 0.000000
vt 1.000000 1.000000
vt 0.000000 0.000000
vt 1.000000 0.000000
vt 1.000000 1.000000
vt 0.000000 0.000000
vt 1.000000 0.000000
vt 0.000000 0.000000
vt 1.000000 1.000000
vt 0.000000 0.000000
vt 1.000000 0.000000
vt 1.000000 1.000000
vt 0.000000 0.000000
vt 1.000000 0.000000
vt 0.000000 0.000000
vt 0.000000 0.000000
vt 1.000000 0.000000
vt 1.000000 1.000000
vt 0.000000 0.000000
vt 1.000000 0.000000
vt 1.000000 1.000000
vt 0.000000 0.000000
vt 1.000000 0.000000
vt 0.000000 0.000000
vt 1.000000 0.000000
vt 1.000000 1.000000
vt 1.000000 1.000000
vt 0.000000 0.000000
vt 1.000000 0.000000
vt 1.000000 1.000000
vt 0.000000 0.000000
vt 1.000000 0.000000
vt 0.000000 0.000000
vt 0.000000 0.000000
vt 1.000000 0.000000
vt 1.000000 1.000000
vt 0.000000 0.000000
vt 1.000000 0.000000
vt 1.000000 1.000000
vt 0.000000 0.000000
vt 1.000000 0.000000
vt 1.000000 1.000000
vt 0.000000 0.000000
vt 1.000000 0.000000
vt 1.000000 1.000000
vt 0.000000 0.000000
vt 1.000000 0.000000
vt 1.000000 1.000000
vt 0.000000 0.000000
vt 1.000000 0.000000
vt 1.000000 1.000000
vt 1.000000 1.000000
vt 1.000000 1.000000
vt 1.000000 0.000000
vt 1.000000 1.000000
vt 1.000000 1.000000
vt 0.000000 0.000000
vt 1.000000 0.000000
vt 1.000000 0.000000
vt 1.000000 0.000000
vt 0.000000 0.000000
vt 1.000000 0.000000
vt 1.000000 1.000000
vt 1.000000 1.000000
vt 0.000000 0.000000
vt 1.000000 1.000000
vt 1.000000 1.000000
vt 1.000000 0.000000
vt 0.000000 0.000000
vt 1.000000 0.000000
vt 1.000000 0.000000
vt 1.000000 0.000000
vt 1.000000 0.000000
vt 1.000000 1.000000
vt 1.000000 1.000000
vt 1.000000 0.000000
vt 1.000000 1.000000
vt 0.000000 0.000000
vt 1.000000 1.000000
vt 1.000000 0.000000
vt 1.000000 1.000000
vt 0.000000 0.000000
vt 0.000000 0.000000
vt 0.000000 0.000000
vt 1.000000 0.000000
vt 1.000000 1.000000
vt 1.000000 1.000000
vt 1.000000 0.000000
vt 1.000000 0.000000
vt 1.000000 1.000000
vt 0.000000 0.000000
vt 1.000000 1.000000
vt 0.000000 0.000000
vt 1.000000 1.000000
vt 1.000000 1.000000
vt 0.000000 0.000000
vt 1.000000 0.000000
vt 1.000000 0.000000
vt 0.000000 0.000000
vt 1.000000 0.000000
vt 1.000000 1.000000
vt 0.000000 0.000000
vt 1.000000 0.000000
vt 0.000000 0.000000
vt 1.000000 0.000000
vt 0.000000 0.000000
vt 1.000000 0.000000
vt 1.000000 1.000000
vt 0.000000 0.000000
vt 1.000000 0.000000
vt 0.000000 0.000000
vt 1.000000 0.000000
vt 0.000000 0.000000
vt 1.000000 0.000000
vt 0.000000 0.000000
vt 1.000000 0.000000
vt 1.000000 1.000000
vt 0.000000 0.000000
vt 1.000000 0.000000
vt 0.000000 0.000000
vt 1.000000 0.000000
vt 1.000000 1.000000
vt 0.000000 0.000000
vt 1.000000 0.000000
vt 0.000000 0.000000
vt 1.000000 0.000000
vt 0.000000 0.000000
vt 1.000000 0.000000
vt 0.000000 0.000000
vt 1.000000 0.000000
vt 1.000000 1.000000
vt 0.000000 0.000000
vt 1.000000 0.000000
vt 0.000000 0.000000
vt 1.000000 0.000000
vt 1.000000 1.000000
vt 0.000000 0.000000
vt 1.000000 0.000000
vt 0.000000 0.000000
vt 1.000000 0.000000
vt 1.000000 0.000000
vt 1.000000 1.000000
vt 1.000000 0.000000
vt 1.000000 1.000000
vt 1.000000 1.000000
vt 0.000000 0.000000
vt 1.000000 0.000000
vt 1.000000 1.000000
vt 0.000000 0.000000
vt 0.000000 0.000000
vt 1.000000 1.000000
vt 1.000000 1.000000
vt 1.000000 0.000000
vt 1.000000 1.000000
vt 1.000000 0.000000
vt 1.000000 1.000000
vt 0.000000 0.000000
vt 1.000000 1.000000
vt 1.000000 0.000000
vt 1.000000 1.000000
vt 0.000000 0.000000
vt 1.000000 0.000000
vt 1.000000 1.000000
vt 1.000000 1.000000
vt 1.000000 0.000000
vt 1.000000 1.000000
vt 1.000000 1.000000
vt 1.000000 1.000000
vt 1.000000 0.000000
vt 1.000000 1.000000
vt 1.000000 1.000000
vt 1.000000 1.000000
vt 1.000000 1.000000
vn 0.5135 -0.1710 0.8409
vn -0.4713 -0.3420 0.8129
vn -0.9849 -0.1710 -0.0279
vn -0.5135 0.1710 -0.8409
vn -0.4611 0.3936 0.7953
vn 0.4713 0.3420 -0.8129
vn 0.9849 0.1710 0.0279
vn 0.1716 -0.9397 -0.2959
vn -0.1716 0.9397 0.2959
vn 0.4714 0.3420 -0.8129
vn -0.4714 -0.3420 0.8129
vn -0.1715 0.9397 0.2959
vn 0.1715 -0.9397 -0.2959
s off
f 1/1/1 2/2/1 3/3/1
f 3/4/2 4/5/2 5/6/2
f 4/7/3 6/8/3 5/6/3
f 6/9/4 7/10/4 8/11/4
f 9/12/5 4/5/5 10/13/5
f 7/14/6 11/15/6 8/11/6
f 11/16/7 10/17/7 1/18/7
f 6/9/8 8/19/8 11/20/8
f 12/21/1 13/22/1 14/23/1
f 13/24/2 15/25/2 16/26/2
f 16/27/3 17/28/3 18/29/3
f 18/30/4 19/31/4 20/32/4
f 19/33/9 17/28/9 15/34/9
f 20/35/10 21/36/10 22/37/10
f 21/38/7 14/39/7 22/37/7
f 20/35/8 22/40/8 13/41/8
f 23/42/1 24/43/1 25/44/1
f 26/45/2 27/46/2 24/47/2
f 27/48/3 28/49/3 29/50/3
f 28/51/4 30/52/4 29/50/4
f 31/53/9 28/49/9 32/54/9
f 30/55/6 33/56/6 34/57/6
f 33/58/7 25/59/7 34/57/7
f 29/60/8 30/52/8 34/57/8
f 35/61/1 36/62/1 37/63/1
f 37/64/11 38/65/11 39/66/11
f 38/67/3 40/68/3 39/66/3
f 41/69/4 42/70/4 40/71/4
f 41/69/9 38/65/9 43/72/9
f 42/73/6 44/74/6 45/75/6
f 44/76/7 35/77/7 45/75/7
f 40/78/8 42/70/8 45/75/8
f 46/79/12 47/80/12 48/81/12
f 49/82/8 50/83/8 51/84/8
f 52/85/9 53/86/9 54/87/9
f 55/88/8 56/89/8 57/90/8
f 58/91/9 59/92/9 60/93/9
f 61/94/8 62/95/8 63/96/8
f 1/1/1 10/17/1 2/97/1
f 3/4/2 2/2/2 4/98/2
f 4/7/3 9/99/3 6/100/3
f 6/9/4 9/99/4 7/101/4
f 4/7/5 2/2/5 10/13/5
f 10/102/9 64/103/9 7/101/9
f 7/14/9 9/99/9 10/13/9
f 7/14/6 64/103/6 11/20/6
f 11/16/7 64/103/7 10/13/7
f 11/16/8 1/104/8 3/3/8
f 3/4/8 5/105/8 11/20/8
f 5/106/8 6/8/8 11/20/8
f 12/21/1 65/107/1 13/41/1
f 13/24/2 65/107/2 15/34/2
f 16/27/3 15/25/3 17/108/3
f 18/30/4 17/28/4 19/109/4
f 15/110/9 65/107/9 12/111/9
f 12/21/9 21/36/9 15/34/9
f 21/38/9 19/31/9 15/34/9
f 20/35/6 19/31/6 21/112/6
f 21/38/7 12/113/7 14/23/7
f 22/114/13 14/39/13 13/41/13
f 13/24/8 16/115/8 18/29/8
f 18/30/8 20/116/8 13/41/8
f 23/42/1 26/117/1 24/47/1
f 26/45/2 32/118/2 27/119/2
f 27/48/3 32/118/3 28/120/3
f 28/51/4 31/121/4 30/122/4
f 32/123/9 26/117/9 31/124/9
f 26/45/9 23/125/9 31/124/9
f 23/42/9 33/56/9 31/124/9
f 30/55/6 31/121/6 33/126/6
f 33/58/7 23/125/7 25/44/7
f 34/127/8 25/59/8 29/50/8
f 25/128/8 24/43/8 29/50/8
f 24/129/13 27/46/13 29/50/13
f 35/61/1 43/130/1 36/131/1
f 37/64/2 36/62/2 38/132/2
f 38/67/3 41/133/3 40/71/3
f 41/69/4 66/134/4 42/135/4
f 38/67/9 36/62/9 43/72/9
f 43/136/9 44/74/9 66/137/9
f 66/138/9 41/133/9 43/72/9
f 42/73/6 66/134/6 44/139/6
f 44/76/7 43/130/7 35/140/7
f 45/141/8 35/77/8 40/71/8
f 35/61/8 37/142/8 40/71/8
f 37/64/8 39/143/8 40/71/8
f 48/144/12 67/145/12 46/146/12
f 67/147/9 68/148/9 46/146/9
f 68/149/12 69/150/12 46/146/12
f 51/151/8 70/152/8 71/153/8
f 71/154/8 72/155/8 51/84/8
f 72/156/13 49/157/13 51/84/13
f 53/158/9 73/159/9 54/87/9
f 54/160/9 74/161/9 75/162/9
f 75/163/9 52/164/9 54/87/9
f 57/165/13 76/166/13 77/167/13
f 77/168/8 78/169/8 57/90/8
f 78/170/8 55/171/8 57/90/8
f 59/172/9 79/173/9 60/93/9
f 60/174/9 80/175/9 81/176/9
f 81/177/9 58/178/9 60/93/9
f 63/179/8 82/180/8 83/181/8
f 83/182/8 84/183/8 63/96/8
f 84/184/8 61/185/8 63/96/8
f 68/149/1 71/186/1 70/187/1
f 71/154/2 48/188/2 72/189/2
f 72/156/3 47/80/3 49/190/3
f 47/191/4 50/83/4 49/190/4
f 46/79/6 51/192/6 50/193/6
f 69/194/7 70/152/7 51/84/7
f 76/195/1 73/159/1 77/167/1
f 77/168/2 53/86/2 78/196/2
f 78/170/3 52/164/3 55/197/3
f 52/85/4 56/89/4 55/197/4
f 75/163/6 57/198/6 56/199/6
f 57/165/7 54/200/7 76/201/7
f 82/202/1 79/173/1 83/181/1
f 83/182/11 59/92/11 84/203/11
f 59/172/3 61/185/3 84/203/3
f 61/94/4 81/204/4 62/205/4
f 62/206/6 80/175/6 63/96/6
f 63/179/7 60/207/7 82/208/7
f 68/149/1 67/145/1 71/153/1
f 71/154/2 67/145/2 48/81/2
f 72/156/3 48/188/3 47/209/3
f 47/191/4 46/210/4 50/193/4
f 46/79/6 69/150/6 51/84/6
f 69/194/7 68/148/7 70/187/7
f 76/195/1 54/200/1 73/211/1
f 77/168/11 73/159/11 53/212/11
f 78/170/3 53/86/3 52/213/3
f 52/85/4 75/214/4 56/199/4
f 75/163/6 74/161/6 57/90/6
f 57/165/7 74/161/7 54/87/7
f 82/202/1 60/207/1 79/215/1
f 83/182/2 79/173/2 59/216/2
f 59/172/3 58/178/3 61/217/3
f 61/94/4 58/178/4 81/176/4
f 62/206/6 81/204/6 80/218/6
f 63/179/7 80/175/7 60/93/7
