# Blender v2.92.0 Alpha OBJ File: ''
# www.blender.org
o joint.ctpipelow_joint6.002
v 1.069577 10.489653 -0.891244
v 0.792309 9.588225 -0.731845
v 1.069577 9.588225 -0.891244
v 0.515631 10.489653 -0.892266
v 0.515631 9.588225 -0.892266
v 0.516221 9.588225 -1.212087
v 0.516221 10.489653 -1.212087
v 0.793489 9.588225 -1.371487
v 0.793489 10.489653 -1.371487
v 1.070167 9.588225 -1.211065
v 1.070167 10.489653 -1.211065
v 0.792309 10.489653 -0.731844
vt 0.000000 0.000000
vt 1.000000 0.000000
vt 1.000000 1.000000
vt 0.000000 0.000000
vt 1.000000 0.000000
vt 1.000000 1.000000
vt 0.000000 0.000000
vt 1.000000 0.000000
vt 1.000000 1.000000
vt 1.000000 0.000000
vt 1.000000 1.000000
vt 1.000000 0.000000
vt 1.000000 0.000000
vt 1.000000 1.000000
vt 0.000000 0.000000
vt 1.000000 0.000000
vt 0.000000 0.000000
vt 1.000000 1.000000
vt 0.000000 0.000000
vt 0.000000 0.000000
vt 0.000000 0.000000
vt 0.000000 0.000000
vt 0.000000 0.000000
vt 0.000000 0.000000
vn -1.0000 0.0000 -0.0018
vn -0.4984 0.0000 -0.8669
vn 0.0000 1.0000 -0.0000
vn 0.5016 0.0000 -0.8651
vn 0.0000 -1.0000 0.0000
vn 0.7547 -0.0000 0.6560
vn -0.0015 -0.6100 0.7924
vn 0.6855 -0.6100 0.3975
vn -0.5016 -0.0000 0.8651
vn -0.3547 -0.7071 0.6117
vn 1.0000 0.0000 0.0018
vn 0.4472 -0.8944 0.0009
vn -0.0018 -0.0000 1.0000
s off
f 4/1/1 6/2/1 5/3/1
f 7/4/2 8/5/2 6/6/2
f 9/7/3 7/8/3 4/9/3
f 9/7/4 10/10/4 8/11/4
f 4/1/1 7/8/1 6/6/1
f 7/4/2 9/12/2 8/11/2
f 4/1/3 12/13/3 1/14/3
f 1/15/3 11/16/3 4/9/3
f 11/17/3 9/12/3 4/9/3
f 9/7/4 11/16/4 10/18/4
f 6/19/5 8/5/5 10/18/5
s 1
f 1/15/6 2/20/7 3/21/8
f 2/20/7 4/1/9 5/22/10
f 11/17/11 3/21/8 10/23/12
f 2/20/7 6/19/5 10/23/12
f 1/15/6 12/24/13 2/20/7
f 2/20/7 12/24/13 4/1/9
f 11/17/11 1/15/6 3/21/8
f 10/23/12 3/21/8 2/20/7
f 2/20/7 5/22/10 6/19/5
